<mxfile host="app.diagrams.net" modified="2023-06-08T07:23:45.693Z" agent="Mozilla/5.0 (X11; Linux x86_64; rv:91.0) Gecko/20100101 Firefox/91.0" etag="L7qpQCUfHcTj7WqcvGZJ" version="21.3.7" type="google" pages="4">
  <diagram id="nVrNNtxU92FsOJ0VngSx" name="RECHERCHE Réservation">
    <mxGraphModel grid="1" page="1" gridSize="10" guides="1" tooltips="1" connect="1" arrows="1" fold="1" pageScale="1" pageWidth="827" pageHeight="1169" math="0" shadow="0">
      <root>
        <mxCell id="0" />
        <mxCell id="1" parent="0" />
        <mxCell id="-PEjHqksIMITQPRmx0bf-2" value="" style="edgeStyle=orthogonalEdgeStyle;rounded=0;orthogonalLoop=1;jettySize=auto;html=1;entryX=0.5;entryY=0;entryDx=0;entryDy=0;" edge="1" parent="1" source="eyl5RtaJb7O4NfZxJaE_-1" target="s3RD69cBq-TNSOeXk1p9-1">
          <mxGeometry relative="1" as="geometry" />
        </mxCell>
        <mxCell id="eyl5RtaJb7O4NfZxJaE_-1" value="Recherche Réservation" style="rounded=1;whiteSpace=wrap;html=1;fontSize=12;glass=0;strokeWidth=1;shadow=0;" vertex="1" parent="1">
          <mxGeometry x="350" width="120" height="40" as="geometry" />
        </mxCell>
        <mxCell id="EIvML6i7Raw_Zmq7Dpqf-2" style="edgeStyle=orthogonalEdgeStyle;rounded=0;orthogonalLoop=1;jettySize=auto;html=1;entryX=0.5;entryY=0;entryDx=0;entryDy=0;" edge="1" parent="1" source="-PEjHqksIMITQPRmx0bf-1" target="EIvML6i7Raw_Zmq7Dpqf-1">
          <mxGeometry relative="1" as="geometry" />
        </mxCell>
        <mxCell id="yzi0SrAnQAzubee19lm--1" value="" style="edgeStyle=orthogonalEdgeStyle;rounded=0;orthogonalLoop=1;jettySize=auto;html=1;" edge="1" parent="1" source="-PEjHqksIMITQPRmx0bf-1" target="1AryxUluOx3wFKaGAtmE-1">
          <mxGeometry relative="1" as="geometry" />
        </mxCell>
        <mxCell id="-PEjHqksIMITQPRmx0bf-1" value="numéro reservation connu" style="rhombus;whiteSpace=wrap;html=1;shadow=0;fontFamily=Helvetica;fontSize=12;align=center;strokeWidth=1;spacing=6;spacingTop=-4;" vertex="1" parent="1">
          <mxGeometry x="360" y="110" width="100" height="80" as="geometry" />
        </mxCell>
        <mxCell id="KN5TEK1-x7qf67YrJDyD-2" style="edgeStyle=orthogonalEdgeStyle;rounded=0;orthogonalLoop=1;jettySize=auto;html=1;entryX=0.5;entryY=0;entryDx=0;entryDy=0;" edge="1" parent="1" source="EIvML6i7Raw_Zmq7Dpqf-1" target="quvOY6Zux6VPpstaA1fV-1">
          <mxGeometry relative="1" as="geometry" />
        </mxCell>
        <mxCell id="EIvML6i7Raw_Zmq7Dpqf-1" value="Saisir numéro reservation" style="rounded=1;whiteSpace=wrap;html=1;shadow=0;strokeWidth=1;spacing=6;spacingTop=-4;" vertex="1" parent="1">
          <mxGeometry x="110" y="200" width="120" height="30" as="geometry" />
        </mxCell>
        <mxCell id="rcr0Lr0x8nJFRFszVAmH-1" value="Yes" style="rounded=0;html=1;jettySize=auto;orthogonalLoop=1;fontSize=11;endArrow=block;endFill=0;endSize=8;strokeWidth=1;shadow=0;labelBackgroundColor=none;edgeStyle=orthogonalEdgeStyle;strokeColor=none;" edge="1" parent="1">
          <mxGeometry x="-1" y="-430" relative="1" as="geometry">
            <mxPoint x="-410" y="-300" as="offset" />
            <mxPoint x="770" y="10" as="targetPoint" />
            <mxPoint x="750" y="10" as="sourcePoint" />
          </mxGeometry>
        </mxCell>
        <mxCell id="s3RD69cBq-TNSOeXk1p9-2" value="" style="edgeStyle=orthogonalEdgeStyle;rounded=0;orthogonalLoop=1;jettySize=auto;html=1;entryX=0;entryY=0.5;entryDx=0;entryDy=0;" edge="1" parent="1" source="quvOY6Zux6VPpstaA1fV-1" target="s3RD69cBq-TNSOeXk1p9-1">
          <mxGeometry relative="1" as="geometry">
            <Array as="points">
              <mxPoint x="70" y="320" />
              <mxPoint x="70" y="70" />
            </Array>
          </mxGeometry>
        </mxCell>
        <mxCell id="s3RD69cBq-TNSOeXk1p9-25" style="edgeStyle=orthogonalEdgeStyle;rounded=0;orthogonalLoop=1;jettySize=auto;html=1;entryX=0;entryY=0.5;entryDx=0;entryDy=0;" edge="1" parent="1" source="quvOY6Zux6VPpstaA1fV-1" target="s3RD69cBq-TNSOeXk1p9-24">
          <mxGeometry relative="1" as="geometry">
            <Array as="points">
              <mxPoint x="170" y="940" />
            </Array>
          </mxGeometry>
        </mxCell>
        <mxCell id="quvOY6Zux6VPpstaA1fV-1" value="Numéro resa existant" style="rhombus;whiteSpace=wrap;html=1;shadow=0;fontFamily=Helvetica;fontSize=12;align=center;strokeWidth=1;spacing=6;spacingTop=-4;" vertex="1" parent="1">
          <mxGeometry x="120" y="280" width="100" height="80" as="geometry" />
        </mxCell>
        <mxCell id="v8T3mhTAA0Soz9t6GzZH-3" value="Yes" style="rounded=0;html=1;jettySize=auto;orthogonalLoop=1;fontSize=11;endArrow=block;endFill=0;endSize=8;strokeWidth=1;shadow=0;labelBackgroundColor=none;edgeStyle=orthogonalEdgeStyle;strokeColor=none;" edge="1" parent="1">
          <mxGeometry x="-1" y="-664" relative="1" as="geometry">
            <mxPoint x="-570" y="-324" as="offset" />
            <mxPoint x="780" y="20" as="targetPoint" />
            <mxPoint x="760" y="20" as="sourcePoint" />
          </mxGeometry>
        </mxCell>
        <mxCell id="xSEEiYIQQi3pWQOlFVOy-1" value="Affichage detail Reservation" style="rounded=1;whiteSpace=wrap;html=1;fontSize=12;glass=0;strokeWidth=1;shadow=0;" vertex="1" parent="1">
          <mxGeometry x="320" y="1000" width="120" height="40" as="geometry" />
        </mxCell>
        <mxCell id="ae6SK-5iDsS30c_IuUs2-1" value="" style="edgeStyle=orthogonalEdgeStyle;rounded=0;orthogonalLoop=1;jettySize=auto;html=1;entryX=0.5;entryY=0;entryDx=0;entryDy=0;" edge="1" parent="1" target="xSEEiYIQQi3pWQOlFVOy-1">
          <mxGeometry relative="1" as="geometry">
            <mxPoint x="380" y="960" as="sourcePoint" />
            <mxPoint x="400" y="800" as="targetPoint" />
          </mxGeometry>
        </mxCell>
        <mxCell id="-3yv1GYE6WFBBPy1X77W-1" value="No" style="edgeStyle=orthogonalEdgeStyle;rounded=0;html=1;jettySize=auto;orthogonalLoop=1;fontSize=11;endArrow=block;endFill=0;endSize=8;strokeWidth=1;shadow=0;labelBackgroundColor=none;strokeColor=none;" edge="1" parent="1">
          <mxGeometry x="0.6" y="708" relative="1" as="geometry">
            <mxPoint x="58" y="280" as="offset" />
            <mxPoint x="780" y="20" as="sourcePoint" />
            <mxPoint x="750" y="20" as="targetPoint" />
            <Array as="points">
              <mxPoint x="780" y="30" />
              <mxPoint x="750" y="30" />
            </Array>
          </mxGeometry>
        </mxCell>
        <mxCell id="liSb2R-7UGCsmA-qi4U6-2" value="" style="edgeStyle=orthogonalEdgeStyle;rounded=0;orthogonalLoop=1;jettySize=auto;html=1;" edge="1" parent="1" source="1AryxUluOx3wFKaGAtmE-1" target="liSb2R-7UGCsmA-qi4U6-1">
          <mxGeometry relative="1" as="geometry" />
        </mxCell>
        <mxCell id="1AryxUluOx3wFKaGAtmE-1" value="Saisir Première lettre Nom et Prenom" style="rounded=1;whiteSpace=wrap;html=1;fontSize=12;glass=0;strokeWidth=1;shadow=0;" vertex="1" parent="1">
          <mxGeometry x="350" y="220" width="120" height="40" as="geometry" />
        </mxCell>
        <mxCell id="SSTqEtBC-3Bgv8guqlxA-2" value="" style="edgeStyle=orthogonalEdgeStyle;rounded=0;orthogonalLoop=1;jettySize=auto;html=1;" edge="1" parent="1" source="liSb2R-7UGCsmA-qi4U6-1" target="SSTqEtBC-3Bgv8guqlxA-1">
          <mxGeometry relative="1" as="geometry" />
        </mxCell>
        <mxCell id="s3RD69cBq-TNSOeXk1p9-11" style="edgeStyle=orthogonalEdgeStyle;rounded=0;orthogonalLoop=1;jettySize=auto;html=1;entryX=0;entryY=0.5;entryDx=0;entryDy=0;" edge="1" parent="1" source="liSb2R-7UGCsmA-qi4U6-1" target="s3RD69cBq-TNSOeXk1p9-9">
          <mxGeometry relative="1" as="geometry">
            <Array as="points">
              <mxPoint x="410" y="520" />
            </Array>
          </mxGeometry>
        </mxCell>
        <mxCell id="liSb2R-7UGCsmA-qi4U6-1" value="Première lettre existant" style="rhombus;whiteSpace=wrap;html=1;shadow=0;fontFamily=Helvetica;fontSize=12;align=center;strokeWidth=1;spacing=6;spacingTop=-4;" vertex="1" parent="1">
          <mxGeometry x="360" y="280" width="100" height="80" as="geometry" />
        </mxCell>
        <mxCell id="eKUPunA9DdtBRZcArlbW-1" value="No" style="edgeStyle=orthogonalEdgeStyle;rounded=0;html=1;jettySize=auto;orthogonalLoop=1;fontSize=11;endArrow=block;endFill=0;endSize=8;strokeWidth=1;shadow=0;labelBackgroundColor=none;strokeColor=none;" edge="1" parent="1">
          <mxGeometry x="-1" y="-112" relative="1" as="geometry">
            <mxPoint x="-20" y="-2" as="offset" />
            <mxPoint x="500" y="200" as="sourcePoint" />
            <mxPoint x="550" y="200" as="targetPoint" />
          </mxGeometry>
        </mxCell>
        <mxCell id="Q-wgzojXAmNPPU05dpxG-2" value="" style="edgeStyle=orthogonalEdgeStyle;rounded=0;orthogonalLoop=1;jettySize=auto;html=1;" edge="1" parent="1" source="SSTqEtBC-3Bgv8guqlxA-1" target="Q-wgzojXAmNPPU05dpxG-1">
          <mxGeometry relative="1" as="geometry" />
        </mxCell>
        <mxCell id="SSTqEtBC-3Bgv8guqlxA-1" value="Saisir numéro telephone" style="rounded=1;whiteSpace=wrap;html=1;fontSize=12;glass=0;strokeWidth=1;shadow=0;" vertex="1" parent="1">
          <mxGeometry x="600" y="300" width="120" height="40" as="geometry" />
        </mxCell>
        <mxCell id="J-wAL9DPcE-DEPqwE7-d-2" value="" style="edgeStyle=orthogonalEdgeStyle;rounded=0;orthogonalLoop=1;jettySize=auto;html=1;" edge="1" parent="1" source="Q-wgzojXAmNPPU05dpxG-1" target="J-wAL9DPcE-DEPqwE7-d-1">
          <mxGeometry relative="1" as="geometry" />
        </mxCell>
        <mxCell id="s3RD69cBq-TNSOeXk1p9-10" style="edgeStyle=orthogonalEdgeStyle;rounded=0;orthogonalLoop=1;jettySize=auto;html=1;entryX=1;entryY=0.5;entryDx=0;entryDy=0;" edge="1" parent="1" source="Q-wgzojXAmNPPU05dpxG-1" target="s3RD69cBq-TNSOeXk1p9-9">
          <mxGeometry relative="1" as="geometry" />
        </mxCell>
        <mxCell id="Q-wgzojXAmNPPU05dpxG-1" value="Numéro tél existant" style="rhombus;whiteSpace=wrap;html=1;shadow=0;fontFamily=Helvetica;fontSize=12;align=center;strokeWidth=1;spacing=6;spacingTop=-4;" vertex="1" parent="1">
          <mxGeometry x="610" y="390" width="100" height="80" as="geometry" />
        </mxCell>
        <mxCell id="J-wAL9DPcE-DEPqwE7-d-1" value="" style="shape=waypoint;sketch=0;size=6;pointerEvents=1;points=[];fillColor=default;resizable=0;rotatable=0;perimeter=centerPerimeter;snapToPoint=1;shadow=0;strokeWidth=1;spacing=6;spacingTop=-4;" vertex="1" parent="1">
          <mxGeometry x="760" y="420" width="20" height="20" as="geometry" />
        </mxCell>
        <mxCell id="s3RD69cBq-TNSOeXk1p9-22" style="edgeStyle=orthogonalEdgeStyle;rounded=0;orthogonalLoop=1;jettySize=auto;html=1;" edge="1" parent="1" source="xkjgLnR_l1XvZ6jOqGzO-1">
          <mxGeometry relative="1" as="geometry">
            <mxPoint x="490" y="740" as="targetPoint" />
          </mxGeometry>
        </mxCell>
        <mxCell id="xkjgLnR_l1XvZ6jOqGzO-1" value="Affichage Num Client" style="rounded=1;whiteSpace=wrap;html=1;shadow=0;strokeWidth=1;spacing=6;spacingTop=-4;" vertex="1" parent="1">
          <mxGeometry x="430" y="660" width="120" height="30" as="geometry" />
        </mxCell>
        <mxCell id="s3RD69cBq-TNSOeXk1p9-21" style="edgeStyle=orthogonalEdgeStyle;rounded=0;orthogonalLoop=1;jettySize=auto;html=1;" edge="1" parent="1" source="qkTlbI4GhF5tgrlECkgX-1">
          <mxGeometry relative="1" as="geometry">
            <mxPoint x="680" y="740" as="targetPoint" />
          </mxGeometry>
        </mxCell>
        <mxCell id="qkTlbI4GhF5tgrlECkgX-1" value="Affichage des coordonnées" style="rounded=1;whiteSpace=wrap;html=1;shadow=0;strokeWidth=1;spacing=6;spacingTop=-4;" vertex="1" parent="1">
          <mxGeometry x="620" y="660" width="120" height="30" as="geometry" />
        </mxCell>
        <mxCell id="s3RD69cBq-TNSOeXk1p9-26" style="edgeStyle=orthogonalEdgeStyle;rounded=0;orthogonalLoop=1;jettySize=auto;html=1;entryX=1;entryY=0.5;entryDx=0;entryDy=0;" edge="1" parent="1" source="C4DqpvkzKnaO0YXDqYKU-3" target="s3RD69cBq-TNSOeXk1p9-24">
          <mxGeometry relative="1" as="geometry">
            <Array as="points">
              <mxPoint x="570" y="940" />
            </Array>
          </mxGeometry>
        </mxCell>
        <mxCell id="C4DqpvkzKnaO0YXDqYKU-3" value="Choisir Réservation" style="rounded=1;whiteSpace=wrap;html=1;shadow=0;strokeWidth=1;spacing=6;spacingTop=-4;" vertex="1" parent="1">
          <mxGeometry x="510" y="830" width="120" height="30" as="geometry" />
        </mxCell>
        <mxCell id="oO0Qugsf0IAtZArvpsQH-1" value="Yes" style="rounded=0;html=1;jettySize=auto;orthogonalLoop=1;fontSize=11;endArrow=block;endFill=0;endSize=8;strokeWidth=1;shadow=0;labelBackgroundColor=none;edgeStyle=orthogonalEdgeStyle;strokeColor=none;" edge="1" parent="1">
          <mxGeometry x="-1" y="-488" relative="1" as="geometry">
            <mxPoint x="-340" y="-138" as="offset" />
            <mxPoint x="780" y="20" as="targetPoint" />
            <mxPoint x="760" y="20" as="sourcePoint" />
          </mxGeometry>
        </mxCell>
        <mxCell id="oO0Qugsf0IAtZArvpsQH-2" value="Yes" style="rounded=0;html=1;jettySize=auto;orthogonalLoop=1;fontSize=11;endArrow=block;endFill=0;endSize=8;strokeWidth=1;shadow=0;labelBackgroundColor=none;edgeStyle=orthogonalEdgeStyle;strokeColor=none;" edge="1" parent="1">
          <mxGeometry x="-1" y="-459" relative="1" as="geometry">
            <mxPoint x="-90" y="-9" as="offset" />
            <mxPoint x="790" y="30" as="targetPoint" />
            <mxPoint x="770" y="30" as="sourcePoint" />
          </mxGeometry>
        </mxCell>
        <mxCell id="oO0Qugsf0IAtZArvpsQH-3" value="No" style="edgeStyle=orthogonalEdgeStyle;rounded=0;html=1;jettySize=auto;orthogonalLoop=1;fontSize=11;endArrow=block;endFill=0;endSize=8;strokeWidth=1;shadow=0;labelBackgroundColor=none;strokeColor=none;" edge="1" parent="1">
          <mxGeometry x="1" y="-264" relative="1" as="geometry">
            <mxPoint x="160" y="-54" as="offset" />
            <mxPoint x="510" y="210" as="sourcePoint" />
            <mxPoint x="560" y="210" as="targetPoint" />
          </mxGeometry>
        </mxCell>
        <mxCell id="oO0Qugsf0IAtZArvpsQH-4" value="No" style="edgeStyle=orthogonalEdgeStyle;rounded=0;html=1;jettySize=auto;orthogonalLoop=1;fontSize=11;endArrow=block;endFill=0;endSize=8;strokeWidth=1;shadow=0;labelBackgroundColor=none;strokeColor=none;" edge="1" parent="1">
          <mxGeometry x="-1" y="104" relative="1" as="geometry">
            <mxPoint x="-100" y="74" as="offset" />
            <mxPoint x="520" y="220" as="sourcePoint" />
            <mxPoint x="570" y="220" as="targetPoint" />
          </mxGeometry>
        </mxCell>
        <mxCell id="s3RD69cBq-TNSOeXk1p9-3" style="edgeStyle=orthogonalEdgeStyle;rounded=0;orthogonalLoop=1;jettySize=auto;html=1;exitX=0.5;exitY=1;exitDx=0;exitDy=0;entryX=0.5;entryY=0;entryDx=0;entryDy=0;" edge="1" parent="1" source="s3RD69cBq-TNSOeXk1p9-1" target="-PEjHqksIMITQPRmx0bf-1">
          <mxGeometry relative="1" as="geometry" />
        </mxCell>
        <mxCell id="s3RD69cBq-TNSOeXk1p9-1" value="" style="rhombus;whiteSpace=wrap;html=1;shadow=0;strokeWidth=1;spacing=6;spacingTop=-4;" vertex="1" parent="1">
          <mxGeometry x="390" y="50" width="40" height="40" as="geometry" />
        </mxCell>
        <mxCell id="s3RD69cBq-TNSOeXk1p9-8" value="" style="shape=link;html=1;rounded=0;" edge="1" parent="1">
          <mxGeometry width="100" relative="1" as="geometry">
            <mxPoint x="460" y="570" as="sourcePoint" />
            <mxPoint x="690" y="570" as="targetPoint" />
          </mxGeometry>
        </mxCell>
        <mxCell id="s3RD69cBq-TNSOeXk1p9-14" style="edgeStyle=orthogonalEdgeStyle;rounded=0;orthogonalLoop=1;jettySize=auto;html=1;" edge="1" parent="1" source="s3RD69cBq-TNSOeXk1p9-9">
          <mxGeometry relative="1" as="geometry">
            <mxPoint x="590" y="570" as="targetPoint" />
          </mxGeometry>
        </mxCell>
        <mxCell id="s3RD69cBq-TNSOeXk1p9-9" value="" style="rhombus;whiteSpace=wrap;html=1;" vertex="1" parent="1">
          <mxGeometry x="570" y="500" width="40" height="40" as="geometry" />
        </mxCell>
        <mxCell id="s3RD69cBq-TNSOeXk1p9-17" style="edgeStyle=orthogonalEdgeStyle;rounded=0;orthogonalLoop=1;jettySize=auto;html=1;entryX=0.5;entryY=0;entryDx=0;entryDy=0;" edge="1" parent="1" target="xkjgLnR_l1XvZ6jOqGzO-1">
          <mxGeometry relative="1" as="geometry">
            <mxPoint x="490" y="570" as="sourcePoint" />
            <mxPoint x="180" y="290" as="targetPoint" />
          </mxGeometry>
        </mxCell>
        <mxCell id="s3RD69cBq-TNSOeXk1p9-18" style="edgeStyle=orthogonalEdgeStyle;rounded=0;orthogonalLoop=1;jettySize=auto;html=1;entryX=0.25;entryY=0;entryDx=0;entryDy=0;" edge="1" parent="1" target="qkTlbI4GhF5tgrlECkgX-1">
          <mxGeometry relative="1" as="geometry">
            <mxPoint x="650" y="570" as="sourcePoint" />
            <mxPoint x="500" y="670" as="targetPoint" />
          </mxGeometry>
        </mxCell>
        <mxCell id="s3RD69cBq-TNSOeXk1p9-20" value="" style="shape=link;html=1;rounded=0;" edge="1" parent="1">
          <mxGeometry width="100" relative="1" as="geometry">
            <mxPoint x="430" y="740" as="sourcePoint" />
            <mxPoint x="710" y="740" as="targetPoint" />
          </mxGeometry>
        </mxCell>
        <mxCell id="s3RD69cBq-TNSOeXk1p9-23" style="edgeStyle=orthogonalEdgeStyle;rounded=0;orthogonalLoop=1;jettySize=auto;html=1;entryX=0.5;entryY=0;entryDx=0;entryDy=0;" edge="1" parent="1" target="C4DqpvkzKnaO0YXDqYKU-3">
          <mxGeometry relative="1" as="geometry">
            <mxPoint x="580" y="740" as="sourcePoint" />
            <mxPoint x="660" y="670" as="targetPoint" />
            <Array as="points">
              <mxPoint x="570" y="740" />
            </Array>
          </mxGeometry>
        </mxCell>
        <mxCell id="s3RD69cBq-TNSOeXk1p9-24" value="" style="rhombus;whiteSpace=wrap;html=1;" vertex="1" parent="1">
          <mxGeometry x="360" y="920" width="40" height="40" as="geometry" />
        </mxCell>
      </root>
    </mxGraphModel>
  </diagram>
  <diagram name="Page 3" id="eYtgwicm-4b4HLEsACRk">
    <mxGraphModel grid="1" page="1" gridSize="10" guides="1" tooltips="1" connect="1" arrows="1" fold="1" pageScale="1" pageWidth="827" pageHeight="1169" math="0" shadow="0">
      <root>
        <mxCell id="4EU7ZFIQadxx8xQCTgIh-0" />
        <mxCell id="4EU7ZFIQadxx8xQCTgIh-1" parent="4EU7ZFIQadxx8xQCTgIh-0" />
        <mxCell id="4EU7ZFIQadxx8xQCTgIh-2" value="" style="edgeStyle=orthogonalEdgeStyle;rounded=0;orthogonalLoop=1;jettySize=auto;html=1;entryX=0.5;entryY=0;entryDx=0;entryDy=0;" edge="1" parent="4EU7ZFIQadxx8xQCTgIh-1" source="4EU7ZFIQadxx8xQCTgIh-3" target="4EU7ZFIQadxx8xQCTgIh-40">
          <mxGeometry relative="1" as="geometry" />
        </mxCell>
        <mxCell id="4EU7ZFIQadxx8xQCTgIh-3" value="Afficher détails réservation" style="rounded=1;whiteSpace=wrap;html=1;fontSize=12;glass=0;strokeWidth=1;shadow=0;" vertex="1" parent="4EU7ZFIQadxx8xQCTgIh-1">
          <mxGeometry x="380" y="90" width="120" height="40" as="geometry" />
        </mxCell>
        <mxCell id="4EU7ZFIQadxx8xQCTgIh-4" style="edgeStyle=orthogonalEdgeStyle;rounded=0;orthogonalLoop=1;jettySize=auto;html=1;entryX=0.5;entryY=0;entryDx=0;entryDy=0;" edge="1" parent="4EU7ZFIQadxx8xQCTgIh-1" source="4EU7ZFIQadxx8xQCTgIh-6" target="4EU7ZFIQadxx8xQCTgIh-8">
          <mxGeometry relative="1" as="geometry" />
        </mxCell>
        <mxCell id="4EU7ZFIQadxx8xQCTgIh-5" value="" style="edgeStyle=orthogonalEdgeStyle;rounded=0;orthogonalLoop=1;jettySize=auto;html=1;" edge="1" parent="4EU7ZFIQadxx8xQCTgIh-1" source="4EU7ZFIQadxx8xQCTgIh-6" target="4EU7ZFIQadxx8xQCTgIh-18">
          <mxGeometry relative="1" as="geometry" />
        </mxCell>
        <mxCell id="4EU7ZFIQadxx8xQCTgIh-6" value="numéro reservation connu" style="rhombus;whiteSpace=wrap;html=1;shadow=0;fontFamily=Helvetica;fontSize=12;align=center;strokeWidth=1;spacing=6;spacingTop=-4;" vertex="1" parent="4EU7ZFIQadxx8xQCTgIh-1">
          <mxGeometry x="349" y="1310" width="100" height="80" as="geometry" />
        </mxCell>
        <mxCell id="4EU7ZFIQadxx8xQCTgIh-7" style="edgeStyle=orthogonalEdgeStyle;rounded=0;orthogonalLoop=1;jettySize=auto;html=1;entryX=0.5;entryY=0;entryDx=0;entryDy=0;" edge="1" parent="4EU7ZFIQadxx8xQCTgIh-1" source="4EU7ZFIQadxx8xQCTgIh-8" target="4EU7ZFIQadxx8xQCTgIh-12">
          <mxGeometry relative="1" as="geometry" />
        </mxCell>
        <mxCell id="4EU7ZFIQadxx8xQCTgIh-8" value="Saisir numéro reservation" style="rounded=1;whiteSpace=wrap;html=1;shadow=0;strokeWidth=1;spacing=6;spacingTop=-4;" vertex="1" parent="4EU7ZFIQadxx8xQCTgIh-1">
          <mxGeometry x="99" y="1400" width="120" height="30" as="geometry" />
        </mxCell>
        <mxCell id="4EU7ZFIQadxx8xQCTgIh-10" value="" style="edgeStyle=orthogonalEdgeStyle;rounded=0;orthogonalLoop=1;jettySize=auto;html=1;" edge="1" parent="4EU7ZFIQadxx8xQCTgIh-1" source="4EU7ZFIQadxx8xQCTgIh-12">
          <mxGeometry relative="1" as="geometry">
            <Array as="points">
              <mxPoint x="159" y="1320" />
              <mxPoint x="90" y="1320" />
              <mxPoint x="90" y="1300" />
              <mxPoint x="200" y="1300" />
            </Array>
            <mxPoint x="200" y="1340" as="targetPoint" />
          </mxGeometry>
        </mxCell>
        <mxCell id="4EU7ZFIQadxx8xQCTgIh-11" style="edgeStyle=orthogonalEdgeStyle;rounded=0;orthogonalLoop=1;jettySize=auto;html=1;entryX=0;entryY=0.5;entryDx=0;entryDy=0;" edge="1" parent="4EU7ZFIQadxx8xQCTgIh-1" source="4EU7ZFIQadxx8xQCTgIh-12" target="4EU7ZFIQadxx8xQCTgIh-48">
          <mxGeometry relative="1" as="geometry">
            <Array as="points">
              <mxPoint x="159" y="2140" />
            </Array>
          </mxGeometry>
        </mxCell>
        <mxCell id="4EU7ZFIQadxx8xQCTgIh-12" value="Numéro resa existant" style="rhombus;whiteSpace=wrap;html=1;shadow=0;fontFamily=Helvetica;fontSize=12;align=center;strokeWidth=1;spacing=6;spacingTop=-4;" vertex="1" parent="4EU7ZFIQadxx8xQCTgIh-1">
          <mxGeometry x="109" y="1480" width="100" height="80" as="geometry" />
        </mxCell>
        <mxCell id="4EU7ZFIQadxx8xQCTgIh-14" value="Affichage detail Reservation" style="rounded=1;whiteSpace=wrap;html=1;fontSize=12;glass=0;strokeWidth=1;shadow=0;" vertex="1" parent="4EU7ZFIQadxx8xQCTgIh-1">
          <mxGeometry x="309" y="2200" width="120" height="40" as="geometry" />
        </mxCell>
        <mxCell id="4EU7ZFIQadxx8xQCTgIh-15" value="" style="edgeStyle=orthogonalEdgeStyle;rounded=0;orthogonalLoop=1;jettySize=auto;html=1;entryX=0.5;entryY=0;entryDx=0;entryDy=0;" edge="1" parent="4EU7ZFIQadxx8xQCTgIh-1" target="4EU7ZFIQadxx8xQCTgIh-14">
          <mxGeometry relative="1" as="geometry">
            <mxPoint x="369" y="2160" as="sourcePoint" />
            <mxPoint x="389" y="2000" as="targetPoint" />
          </mxGeometry>
        </mxCell>
        <mxCell id="4EU7ZFIQadxx8xQCTgIh-17" value="" style="edgeStyle=orthogonalEdgeStyle;rounded=0;orthogonalLoop=1;jettySize=auto;html=1;" edge="1" parent="4EU7ZFIQadxx8xQCTgIh-1" source="4EU7ZFIQadxx8xQCTgIh-18" target="4EU7ZFIQadxx8xQCTgIh-21">
          <mxGeometry relative="1" as="geometry" />
        </mxCell>
        <mxCell id="4EU7ZFIQadxx8xQCTgIh-18" value="Saisir Première lettre Nom et Prenom" style="rounded=1;whiteSpace=wrap;html=1;fontSize=12;glass=0;strokeWidth=1;shadow=0;" vertex="1" parent="4EU7ZFIQadxx8xQCTgIh-1">
          <mxGeometry x="339" y="1420" width="120" height="40" as="geometry" />
        </mxCell>
        <mxCell id="4EU7ZFIQadxx8xQCTgIh-19" value="" style="edgeStyle=orthogonalEdgeStyle;rounded=0;orthogonalLoop=1;jettySize=auto;html=1;" edge="1" parent="4EU7ZFIQadxx8xQCTgIh-1" source="4EU7ZFIQadxx8xQCTgIh-21" target="4EU7ZFIQadxx8xQCTgIh-24">
          <mxGeometry relative="1" as="geometry" />
        </mxCell>
        <mxCell id="4EU7ZFIQadxx8xQCTgIh-20" style="edgeStyle=orthogonalEdgeStyle;rounded=0;orthogonalLoop=1;jettySize=auto;html=1;entryX=0;entryY=0.5;entryDx=0;entryDy=0;" edge="1" parent="4EU7ZFIQadxx8xQCTgIh-1" source="4EU7ZFIQadxx8xQCTgIh-21" target="4EU7ZFIQadxx8xQCTgIh-43">
          <mxGeometry relative="1" as="geometry">
            <Array as="points">
              <mxPoint x="399" y="1720" />
            </Array>
          </mxGeometry>
        </mxCell>
        <mxCell id="4EU7ZFIQadxx8xQCTgIh-21" value="Première lettre existant" style="rhombus;whiteSpace=wrap;html=1;shadow=0;fontFamily=Helvetica;fontSize=12;align=center;strokeWidth=1;spacing=6;spacingTop=-4;" vertex="1" parent="4EU7ZFIQadxx8xQCTgIh-1">
          <mxGeometry x="349" y="1480" width="100" height="80" as="geometry" />
        </mxCell>
        <mxCell id="4EU7ZFIQadxx8xQCTgIh-22" value="No" style="edgeStyle=orthogonalEdgeStyle;rounded=0;html=1;jettySize=auto;orthogonalLoop=1;fontSize=11;endArrow=block;endFill=0;endSize=8;strokeWidth=1;shadow=0;labelBackgroundColor=none;strokeColor=none;" edge="1" parent="4EU7ZFIQadxx8xQCTgIh-1">
          <mxGeometry x="-1" y="-112" relative="1" as="geometry">
            <mxPoint x="-20" y="-2" as="offset" />
            <mxPoint x="489" y="1400" as="sourcePoint" />
            <mxPoint x="539" y="1400" as="targetPoint" />
          </mxGeometry>
        </mxCell>
        <mxCell id="4EU7ZFIQadxx8xQCTgIh-23" value="" style="edgeStyle=orthogonalEdgeStyle;rounded=0;orthogonalLoop=1;jettySize=auto;html=1;" edge="1" parent="4EU7ZFIQadxx8xQCTgIh-1" source="4EU7ZFIQadxx8xQCTgIh-24" target="4EU7ZFIQadxx8xQCTgIh-27">
          <mxGeometry relative="1" as="geometry" />
        </mxCell>
        <mxCell id="4EU7ZFIQadxx8xQCTgIh-24" value="Saisir numéro telephone" style="rounded=1;whiteSpace=wrap;html=1;fontSize=12;glass=0;strokeWidth=1;shadow=0;" vertex="1" parent="4EU7ZFIQadxx8xQCTgIh-1">
          <mxGeometry x="589" y="1500" width="120" height="40" as="geometry" />
        </mxCell>
        <mxCell id="4EU7ZFIQadxx8xQCTgIh-26" style="edgeStyle=orthogonalEdgeStyle;rounded=0;orthogonalLoop=1;jettySize=auto;html=1;entryX=1;entryY=0.5;entryDx=0;entryDy=0;" edge="1" parent="4EU7ZFIQadxx8xQCTgIh-1" source="4EU7ZFIQadxx8xQCTgIh-27" target="4EU7ZFIQadxx8xQCTgIh-43">
          <mxGeometry relative="1" as="geometry" />
        </mxCell>
        <mxCell id="4EU7ZFIQadxx8xQCTgIh-27" value="Numéro tél existant" style="rhombus;whiteSpace=wrap;html=1;shadow=0;fontFamily=Helvetica;fontSize=12;align=center;strokeWidth=1;spacing=6;spacingTop=-4;" vertex="1" parent="4EU7ZFIQadxx8xQCTgIh-1">
          <mxGeometry x="599" y="1590" width="100" height="80" as="geometry" />
        </mxCell>
        <mxCell id="4EU7ZFIQadxx8xQCTgIh-29" style="edgeStyle=orthogonalEdgeStyle;rounded=0;orthogonalLoop=1;jettySize=auto;html=1;" edge="1" parent="4EU7ZFIQadxx8xQCTgIh-1" source="4EU7ZFIQadxx8xQCTgIh-30">
          <mxGeometry relative="1" as="geometry">
            <mxPoint x="479" y="1940" as="targetPoint" />
          </mxGeometry>
        </mxCell>
        <mxCell id="4EU7ZFIQadxx8xQCTgIh-30" value="Affichage Num Client" style="rounded=1;whiteSpace=wrap;html=1;shadow=0;strokeWidth=1;spacing=6;spacingTop=-4;" vertex="1" parent="4EU7ZFIQadxx8xQCTgIh-1">
          <mxGeometry x="419" y="1860" width="120" height="30" as="geometry" />
        </mxCell>
        <mxCell id="4EU7ZFIQadxx8xQCTgIh-31" style="edgeStyle=orthogonalEdgeStyle;rounded=0;orthogonalLoop=1;jettySize=auto;html=1;" edge="1" parent="4EU7ZFIQadxx8xQCTgIh-1" source="4EU7ZFIQadxx8xQCTgIh-32">
          <mxGeometry relative="1" as="geometry">
            <mxPoint x="669" y="1940" as="targetPoint" />
          </mxGeometry>
        </mxCell>
        <mxCell id="4EU7ZFIQadxx8xQCTgIh-32" value="Affichage des coordonnées" style="rounded=1;whiteSpace=wrap;html=1;shadow=0;strokeWidth=1;spacing=6;spacingTop=-4;" vertex="1" parent="4EU7ZFIQadxx8xQCTgIh-1">
          <mxGeometry x="609" y="1860" width="120" height="30" as="geometry" />
        </mxCell>
        <mxCell id="4EU7ZFIQadxx8xQCTgIh-33" style="edgeStyle=orthogonalEdgeStyle;rounded=0;orthogonalLoop=1;jettySize=auto;html=1;entryX=1;entryY=0.5;entryDx=0;entryDy=0;" edge="1" parent="4EU7ZFIQadxx8xQCTgIh-1" source="4EU7ZFIQadxx8xQCTgIh-34" target="4EU7ZFIQadxx8xQCTgIh-48">
          <mxGeometry relative="1" as="geometry">
            <Array as="points">
              <mxPoint x="559" y="2140" />
            </Array>
          </mxGeometry>
        </mxCell>
        <mxCell id="4EU7ZFIQadxx8xQCTgIh-34" value="Choisir Réservation" style="rounded=1;whiteSpace=wrap;html=1;shadow=0;strokeWidth=1;spacing=6;spacingTop=-4;" vertex="1" parent="4EU7ZFIQadxx8xQCTgIh-1">
          <mxGeometry x="499" y="2030" width="120" height="30" as="geometry" />
        </mxCell>
        <mxCell id="4EU7ZFIQadxx8xQCTgIh-37" value="No" style="edgeStyle=orthogonalEdgeStyle;rounded=0;html=1;jettySize=auto;orthogonalLoop=1;fontSize=11;endArrow=block;endFill=0;endSize=8;strokeWidth=1;shadow=0;labelBackgroundColor=none;strokeColor=none;" edge="1" parent="4EU7ZFIQadxx8xQCTgIh-1">
          <mxGeometry x="1" y="-264" relative="1" as="geometry">
            <mxPoint x="160" y="-54" as="offset" />
            <mxPoint x="499" y="1410" as="sourcePoint" />
            <mxPoint x="549" y="1410" as="targetPoint" />
          </mxGeometry>
        </mxCell>
        <mxCell id="4EU7ZFIQadxx8xQCTgIh-38" value="No" style="edgeStyle=orthogonalEdgeStyle;rounded=0;html=1;jettySize=auto;orthogonalLoop=1;fontSize=11;endArrow=block;endFill=0;endSize=8;strokeWidth=1;shadow=0;labelBackgroundColor=none;strokeColor=none;" edge="1" parent="4EU7ZFIQadxx8xQCTgIh-1">
          <mxGeometry x="-1" y="104" relative="1" as="geometry">
            <mxPoint x="-100" y="74" as="offset" />
            <mxPoint x="509" y="1420" as="sourcePoint" />
            <mxPoint x="559" y="1420" as="targetPoint" />
          </mxGeometry>
        </mxCell>
        <mxCell id="4EU7ZFIQadxx8xQCTgIh-39" style="edgeStyle=orthogonalEdgeStyle;rounded=0;orthogonalLoop=1;jettySize=auto;html=1;exitX=0.5;exitY=1;exitDx=0;exitDy=0;entryX=0.5;entryY=0;entryDx=0;entryDy=0;" edge="1" parent="4EU7ZFIQadxx8xQCTgIh-1" target="4EU7ZFIQadxx8xQCTgIh-6">
          <mxGeometry relative="1" as="geometry">
            <mxPoint x="399" y="1290" as="sourcePoint" />
          </mxGeometry>
        </mxCell>
        <mxCell id="QkUNsPcrDnraCbPeNDa--0" value="" style="edgeStyle=orthogonalEdgeStyle;rounded=0;orthogonalLoop=1;jettySize=auto;html=1;" edge="1" parent="4EU7ZFIQadxx8xQCTgIh-1" source="4EU7ZFIQadxx8xQCTgIh-40" target="4EU7ZFIQadxx8xQCTgIh-3">
          <mxGeometry relative="1" as="geometry" />
        </mxCell>
        <mxCell id="ZZFIRFLSSOAJcBY066Es-1" style="edgeStyle=orthogonalEdgeStyle;rounded=0;orthogonalLoop=1;jettySize=auto;html=1;" edge="1" parent="4EU7ZFIQadxx8xQCTgIh-1" source="4EU7ZFIQadxx8xQCTgIh-40">
          <mxGeometry relative="1" as="geometry">
            <mxPoint x="440" y="250" as="targetPoint" />
          </mxGeometry>
        </mxCell>
        <mxCell id="4EU7ZFIQadxx8xQCTgIh-40" value="" style="rhombus;whiteSpace=wrap;html=1;shadow=0;strokeWidth=1;spacing=6;spacingTop=-4;" vertex="1" parent="4EU7ZFIQadxx8xQCTgIh-1">
          <mxGeometry x="420" y="180" width="40" height="40" as="geometry" />
        </mxCell>
        <mxCell id="4EU7ZFIQadxx8xQCTgIh-41" value="" style="shape=link;html=1;rounded=0;" edge="1" parent="4EU7ZFIQadxx8xQCTgIh-1">
          <mxGeometry width="100" relative="1" as="geometry">
            <mxPoint x="449" y="1770" as="sourcePoint" />
            <mxPoint x="679" y="1770" as="targetPoint" />
          </mxGeometry>
        </mxCell>
        <mxCell id="4EU7ZFIQadxx8xQCTgIh-42" style="edgeStyle=orthogonalEdgeStyle;rounded=0;orthogonalLoop=1;jettySize=auto;html=1;" edge="1" parent="4EU7ZFIQadxx8xQCTgIh-1" source="4EU7ZFIQadxx8xQCTgIh-43">
          <mxGeometry relative="1" as="geometry">
            <mxPoint x="579" y="1770" as="targetPoint" />
          </mxGeometry>
        </mxCell>
        <mxCell id="4EU7ZFIQadxx8xQCTgIh-43" value="" style="rhombus;whiteSpace=wrap;html=1;" vertex="1" parent="4EU7ZFIQadxx8xQCTgIh-1">
          <mxGeometry x="559" y="1700" width="40" height="40" as="geometry" />
        </mxCell>
        <mxCell id="4EU7ZFIQadxx8xQCTgIh-44" style="edgeStyle=orthogonalEdgeStyle;rounded=0;orthogonalLoop=1;jettySize=auto;html=1;entryX=0.5;entryY=0;entryDx=0;entryDy=0;" edge="1" parent="4EU7ZFIQadxx8xQCTgIh-1" target="4EU7ZFIQadxx8xQCTgIh-30">
          <mxGeometry relative="1" as="geometry">
            <mxPoint x="479" y="1770" as="sourcePoint" />
            <mxPoint x="169" y="1490" as="targetPoint" />
          </mxGeometry>
        </mxCell>
        <mxCell id="4EU7ZFIQadxx8xQCTgIh-45" style="edgeStyle=orthogonalEdgeStyle;rounded=0;orthogonalLoop=1;jettySize=auto;html=1;entryX=0.25;entryY=0;entryDx=0;entryDy=0;" edge="1" parent="4EU7ZFIQadxx8xQCTgIh-1" target="4EU7ZFIQadxx8xQCTgIh-32">
          <mxGeometry relative="1" as="geometry">
            <mxPoint x="639" y="1770" as="sourcePoint" />
            <mxPoint x="489" y="1870" as="targetPoint" />
          </mxGeometry>
        </mxCell>
        <mxCell id="4EU7ZFIQadxx8xQCTgIh-46" value="" style="shape=link;html=1;rounded=0;" edge="1" parent="4EU7ZFIQadxx8xQCTgIh-1">
          <mxGeometry width="100" relative="1" as="geometry">
            <mxPoint x="419" y="1940" as="sourcePoint" />
            <mxPoint x="699" y="1940" as="targetPoint" />
          </mxGeometry>
        </mxCell>
        <mxCell id="4EU7ZFIQadxx8xQCTgIh-47" style="edgeStyle=orthogonalEdgeStyle;rounded=0;orthogonalLoop=1;jettySize=auto;html=1;entryX=0.585;entryY=0.057;entryDx=0;entryDy=0;entryPerimeter=0;" edge="1" parent="4EU7ZFIQadxx8xQCTgIh-1" target="4EU7ZFIQadxx8xQCTgIh-34">
          <mxGeometry relative="1" as="geometry">
            <mxPoint x="569" y="1940" as="sourcePoint" />
            <mxPoint x="649" y="1870" as="targetPoint" />
          </mxGeometry>
        </mxCell>
        <mxCell id="4EU7ZFIQadxx8xQCTgIh-48" value="" style="rhombus;whiteSpace=wrap;html=1;" vertex="1" parent="4EU7ZFIQadxx8xQCTgIh-1">
          <mxGeometry x="349" y="2120" width="40" height="40" as="geometry" />
        </mxCell>
        <mxCell id="QkUNsPcrDnraCbPeNDa--4" style="edgeStyle=orthogonalEdgeStyle;rounded=0;orthogonalLoop=1;jettySize=auto;html=1;exitX=0;exitY=0.5;exitDx=0;exitDy=0;entryX=0;entryY=0.5;entryDx=0;entryDy=0;" edge="1" parent="4EU7ZFIQadxx8xQCTgIh-1" source="4EU7ZFIQadxx8xQCTgIh-40" target="4EU7ZFIQadxx8xQCTgIh-40">
          <mxGeometry relative="1" as="geometry" />
        </mxCell>
        <mxCell id="7lBmuEzF8ByyajutO4m3-1" style="edgeStyle=orthogonalEdgeStyle;rounded=0;orthogonalLoop=1;jettySize=auto;html=1;" edge="1" parent="4EU7ZFIQadxx8xQCTgIh-1" source="QkUNsPcrDnraCbPeNDa--7" target="7lBmuEzF8ByyajutO4m3-0">
          <mxGeometry relative="1" as="geometry" />
        </mxCell>
        <mxCell id="QkUNsPcrDnraCbPeNDa--7" value="Choisit l&#39;élément à modifié" style="rounded=1;whiteSpace=wrap;html=1;" vertex="1" parent="4EU7ZFIQadxx8xQCTgIh-1">
          <mxGeometry x="659" y="360" width="120" height="60" as="geometry" />
        </mxCell>
        <mxCell id="7lBmuEzF8ByyajutO4m3-3" style="edgeStyle=orthogonalEdgeStyle;rounded=0;orthogonalLoop=1;jettySize=auto;html=1;entryX=0.5;entryY=0;entryDx=0;entryDy=0;" edge="1" parent="4EU7ZFIQadxx8xQCTgIh-1" source="QkUNsPcrDnraCbPeNDa--8" target="2nrO9X2oGj_njSzLdrNf-6">
          <mxGeometry relative="1" as="geometry" />
        </mxCell>
        <mxCell id="QkUNsPcrDnraCbPeNDa--8" value="Tout modifié" style="rounded=1;whiteSpace=wrap;html=1;" vertex="1" parent="4EU7ZFIQadxx8xQCTgIh-1">
          <mxGeometry x="90" y="360" width="120" height="60" as="geometry" />
        </mxCell>
        <mxCell id="QkUNsPcrDnraCbPeNDa--9" value="" style="shape=link;html=1;rounded=0;" edge="1" parent="4EU7ZFIQadxx8xQCTgIh-1">
          <mxGeometry width="100" relative="1" as="geometry">
            <mxPoint x="-563" y="-250" as="sourcePoint" />
            <mxPoint x="-263" y="-250" as="targetPoint" />
          </mxGeometry>
        </mxCell>
        <mxCell id="QkUNsPcrDnraCbPeNDa--10" value="Modifie nb chambre(s) réservé" style="rounded=1;whiteSpace=wrap;html=1;" vertex="1" parent="4EU7ZFIQadxx8xQCTgIh-1">
          <mxGeometry x="-670" y="120" width="120" height="60" as="geometry" />
        </mxCell>
        <mxCell id="QkUNsPcrDnraCbPeNDa--11" value="&lt;div&gt;Modifie date&lt;/div&gt;&lt;div&gt; arrivé&lt;/div&gt;" style="rounded=1;whiteSpace=wrap;html=1;" vertex="1" parent="4EU7ZFIQadxx8xQCTgIh-1">
          <mxGeometry x="-530" y="120" width="120" height="60" as="geometry" />
        </mxCell>
        <mxCell id="7lBmuEzF8ByyajutO4m3-14" style="edgeStyle=orthogonalEdgeStyle;rounded=0;orthogonalLoop=1;jettySize=auto;html=1;entryX=0.5;entryY=0;entryDx=0;entryDy=0;" edge="1" parent="4EU7ZFIQadxx8xQCTgIh-1" source="QkUNsPcrDnraCbPeNDa--12" target="7lBmuEzF8ByyajutO4m3-7">
          <mxGeometry relative="1" as="geometry" />
        </mxCell>
        <mxCell id="QkUNsPcrDnraCbPeNDa--12" value="&lt;div&gt;Modifie le statut des chambre&lt;/div&gt;" style="rounded=1;whiteSpace=wrap;html=1;" vertex="1" parent="4EU7ZFIQadxx8xQCTgIh-1">
          <mxGeometry x="90" y="620" width="120" height="60" as="geometry" />
        </mxCell>
        <mxCell id="L3jLh1q3SvhFQsFSQ_rm-0" value="Catégorie" style="rounded=1;whiteSpace=wrap;html=1;" vertex="1" parent="4EU7ZFIQadxx8xQCTgIh-1">
          <mxGeometry x="-290" y="490" width="120" height="60" as="geometry" />
        </mxCell>
        <mxCell id="ZZFIRFLSSOAJcBY066Es-0" value="" style="shape=link;html=1;rounded=0;" edge="1" parent="4EU7ZFIQadxx8xQCTgIh-1">
          <mxGeometry width="100" relative="1" as="geometry">
            <mxPoint x="-910" y="244.23" as="sourcePoint" />
            <mxPoint x="-370" y="244.23" as="targetPoint" />
          </mxGeometry>
        </mxCell>
        <mxCell id="x8ptVWujiEc7SUnJAvcX-11" value="Modifié 1 éléments&amp;nbsp;" style="rhombus;whiteSpace=wrap;html=1;" vertex="1" parent="4EU7ZFIQadxx8xQCTgIh-1">
          <mxGeometry x="-570" y="-100" width="80" height="80" as="geometry" />
        </mxCell>
        <mxCell id="2nrO9X2oGj_njSzLdrNf-1" style="edgeStyle=orthogonalEdgeStyle;rounded=0;orthogonalLoop=1;jettySize=auto;html=1;entryX=0.5;entryY=0;entryDx=0;entryDy=0;" edge="1" parent="4EU7ZFIQadxx8xQCTgIh-1" source="x8ptVWujiEc7SUnJAvcX-13" target="x8ptVWujiEc7SUnJAvcX-14">
          <mxGeometry relative="1" as="geometry" />
        </mxCell>
        <mxCell id="x8ptVWujiEc7SUnJAvcX-13" value="Souhaite modifié la réservation" style="rounded=1;whiteSpace=wrap;html=1;" vertex="1" parent="4EU7ZFIQadxx8xQCTgIh-1">
          <mxGeometry x="380" y="250" width="120" height="60" as="geometry" />
        </mxCell>
        <mxCell id="2nrO9X2oGj_njSzLdrNf-2" style="edgeStyle=orthogonalEdgeStyle;rounded=0;orthogonalLoop=1;jettySize=auto;html=1;" edge="1" parent="4EU7ZFIQadxx8xQCTgIh-1" source="x8ptVWujiEc7SUnJAvcX-14" target="QkUNsPcrDnraCbPeNDa--7">
          <mxGeometry relative="1" as="geometry" />
        </mxCell>
        <mxCell id="2nrO9X2oGj_njSzLdrNf-3" style="edgeStyle=orthogonalEdgeStyle;rounded=0;orthogonalLoop=1;jettySize=auto;html=1;entryX=1;entryY=0.5;entryDx=0;entryDy=0;" edge="1" parent="4EU7ZFIQadxx8xQCTgIh-1" source="x8ptVWujiEc7SUnJAvcX-14" target="QkUNsPcrDnraCbPeNDa--8">
          <mxGeometry relative="1" as="geometry" />
        </mxCell>
        <mxCell id="x8ptVWujiEc7SUnJAvcX-14" value="Souhaite tout modifié&amp;nbsp;" style="rhombus;whiteSpace=wrap;html=1;" vertex="1" parent="4EU7ZFIQadxx8xQCTgIh-1">
          <mxGeometry x="400" y="350" width="80" height="80" as="geometry" />
        </mxCell>
        <mxCell id="2nrO9X2oGj_njSzLdrNf-4" value="OUI" style="text;html=1;align=center;verticalAlign=middle;resizable=0;points=[];autosize=1;strokeColor=none;fillColor=none;" vertex="1" parent="4EU7ZFIQadxx8xQCTgIh-1">
          <mxGeometry x="290" y="360" width="40" height="30" as="geometry" />
        </mxCell>
        <mxCell id="2nrO9X2oGj_njSzLdrNf-5" value="NON" style="text;html=1;align=center;verticalAlign=middle;resizable=0;points=[];autosize=1;strokeColor=none;fillColor=none;" vertex="1" parent="4EU7ZFIQadxx8xQCTgIh-1">
          <mxGeometry x="534" y="360" width="50" height="30" as="geometry" />
        </mxCell>
        <mxCell id="7lBmuEzF8ByyajutO4m3-6" style="edgeStyle=orthogonalEdgeStyle;rounded=0;orthogonalLoop=1;jettySize=auto;html=1;" edge="1" parent="4EU7ZFIQadxx8xQCTgIh-1" source="2nrO9X2oGj_njSzLdrNf-6">
          <mxGeometry relative="1" as="geometry">
            <mxPoint x="150" y="620" as="targetPoint" />
          </mxGeometry>
        </mxCell>
        <mxCell id="2nrO9X2oGj_njSzLdrNf-6" value="Annule la réservation" style="rounded=1;whiteSpace=wrap;html=1;" vertex="1" parent="4EU7ZFIQadxx8xQCTgIh-1">
          <mxGeometry x="90" y="490" width="120" height="60" as="geometry" />
        </mxCell>
        <mxCell id="7lBmuEzF8ByyajutO4m3-2" style="edgeStyle=orthogonalEdgeStyle;rounded=0;orthogonalLoop=1;jettySize=auto;html=1;entryX=1;entryY=0.5;entryDx=0;entryDy=0;" edge="1" parent="4EU7ZFIQadxx8xQCTgIh-1" source="7lBmuEzF8ByyajutO4m3-0" target="2nrO9X2oGj_njSzLdrNf-6">
          <mxGeometry relative="1" as="geometry" />
        </mxCell>
        <mxCell id="7lBmuEzF8ByyajutO4m3-8" style="edgeStyle=orthogonalEdgeStyle;rounded=0;orthogonalLoop=1;jettySize=auto;html=1;entryX=0.5;entryY=0;entryDx=0;entryDy=0;" edge="1" parent="4EU7ZFIQadxx8xQCTgIh-1" source="7lBmuEzF8ByyajutO4m3-0" target="7lBmuEzF8ByyajutO4m3-4">
          <mxGeometry relative="1" as="geometry" />
        </mxCell>
        <mxCell id="7lBmuEzF8ByyajutO4m3-0" value="Modifié le nombre d&#39;occupant&amp;nbsp;" style="rhombus;whiteSpace=wrap;html=1;" vertex="1" parent="4EU7ZFIQadxx8xQCTgIh-1">
          <mxGeometry x="679" y="480" width="80" height="80" as="geometry" />
        </mxCell>
        <mxCell id="7lBmuEzF8ByyajutO4m3-10" style="edgeStyle=orthogonalEdgeStyle;rounded=0;orthogonalLoop=1;jettySize=auto;html=1;entryX=0.5;entryY=0;entryDx=0;entryDy=0;" edge="1" parent="4EU7ZFIQadxx8xQCTgIh-1" source="7lBmuEzF8ByyajutO4m3-4" target="7lBmuEzF8ByyajutO4m3-5">
          <mxGeometry relative="1" as="geometry" />
        </mxCell>
        <mxCell id="7lBmuEzF8ByyajutO4m3-4" value="&lt;div&gt;Modifie le nombre d&#39;occupants&lt;/div&gt;" style="rounded=1;whiteSpace=wrap;html=1;" vertex="1" parent="4EU7ZFIQadxx8xQCTgIh-1">
          <mxGeometry x="659" y="600" width="120" height="60" as="geometry" />
        </mxCell>
        <mxCell id="7lBmuEzF8ByyajutO4m3-5" value="&lt;div&gt;Affiche récapitulatif de la réservation&lt;/div&gt;" style="rounded=1;whiteSpace=wrap;html=1;" vertex="1" parent="4EU7ZFIQadxx8xQCTgIh-1">
          <mxGeometry x="659" y="700" width="120" height="60" as="geometry" />
        </mxCell>
        <mxCell id="7lBmuEzF8ByyajutO4m3-7" value="" style="ellipse;whiteSpace=wrap;html=1;aspect=fixed;" vertex="1" parent="4EU7ZFIQadxx8xQCTgIh-1">
          <mxGeometry x="135" y="740" width="30" height="30" as="geometry" />
        </mxCell>
        <mxCell id="7lBmuEzF8ByyajutO4m3-11" value="NON" style="text;html=1;align=center;verticalAlign=middle;resizable=0;points=[];autosize=1;strokeColor=none;fillColor=none;" vertex="1" parent="4EU7ZFIQadxx8xQCTgIh-1">
          <mxGeometry x="609" y="490" width="50" height="30" as="geometry" />
        </mxCell>
        <mxCell id="7lBmuEzF8ByyajutO4m3-12" value="OUI" style="text;html=1;align=center;verticalAlign=middle;resizable=0;points=[];autosize=1;strokeColor=none;fillColor=none;" vertex="1" parent="4EU7ZFIQadxx8xQCTgIh-1">
          <mxGeometry x="660" y="558" width="40" height="30" as="geometry" />
        </mxCell>
      </root>
    </mxGraphModel>
  </diagram>
  <diagram id="AthDRp6-3WAwWpizjJJg" name="Page-3">
    <mxGraphModel grid="1" page="1" gridSize="10" guides="1" tooltips="1" connect="1" arrows="1" fold="1" pageScale="1" pageWidth="827" pageHeight="1169" math="0" shadow="0">
      <root>
        <mxCell id="0" />
        <mxCell id="1" parent="0" />
        <mxCell id="_hFZiaEKk419tgl2Dhct-3" value="" style="edgeStyle=orthogonalEdgeStyle;rounded=0;orthogonalLoop=1;jettySize=auto;html=1;" edge="1" parent="1" source="Meo74UrqFGnZ3RieljIa-1" target="_hFZiaEKk419tgl2Dhct-2">
          <mxGeometry relative="1" as="geometry" />
        </mxCell>
        <mxCell id="Meo74UrqFGnZ3RieljIa-1" value="&lt;div&gt;Afficher et enregistré facture&lt;/div&gt;" style="rounded=1;whiteSpace=wrap;html=1;" vertex="1" parent="1">
          <mxGeometry x="354" width="120" height="60" as="geometry" />
        </mxCell>
        <mxCell id="6ENBR64LXpE158-sAjic-5" style="edgeStyle=orthogonalEdgeStyle;rounded=0;orthogonalLoop=1;jettySize=auto;html=1;entryX=0.5;entryY=0;entryDx=0;entryDy=0;" edge="1" parent="1" source="Mlni_Cei-BQBdt8oALIt-1" target="Mlni_Cei-BQBdt8oALIt-3">
          <mxGeometry relative="1" as="geometry" />
        </mxCell>
        <mxCell id="Mlni_Cei-BQBdt8oALIt-1" value="Recherche Réservation" style="rounded=1;whiteSpace=wrap;html=1;fontSize=12;glass=0;strokeWidth=1;shadow=0;" vertex="1" parent="1">
          <mxGeometry x="354" y="190" width="120" height="40" as="geometry" />
        </mxCell>
        <mxCell id="_hFZiaEKk419tgl2Dhct-5" style="edgeStyle=orthogonalEdgeStyle;rounded=0;orthogonalLoop=1;jettySize=auto;html=1;entryX=0;entryY=0.5;entryDx=0;entryDy=0;" edge="1" parent="1" source="Mlni_Cei-BQBdt8oALIt-3" target="_hFZiaEKk419tgl2Dhct-2">
          <mxGeometry relative="1" as="geometry">
            <Array as="points">
              <mxPoint x="210" y="320" />
              <mxPoint x="210" y="115" />
            </Array>
          </mxGeometry>
        </mxCell>
        <mxCell id="6ENBR64LXpE158-sAjic-6" style="edgeStyle=orthogonalEdgeStyle;rounded=0;orthogonalLoop=1;jettySize=auto;html=1;exitX=0.5;exitY=1;exitDx=0;exitDy=0;entryX=0.5;entryY=0;entryDx=0;entryDy=0;" edge="1" parent="1" source="Mlni_Cei-BQBdt8oALIt-3" target="6ENBR64LXpE158-sAjic-4">
          <mxGeometry relative="1" as="geometry" />
        </mxCell>
        <mxCell id="Mlni_Cei-BQBdt8oALIt-3" value="Resa Trouvé" style="rhombus;whiteSpace=wrap;html=1;" vertex="1" parent="1">
          <mxGeometry x="374" y="280" width="80" height="80" as="geometry" />
        </mxCell>
        <mxCell id="i00eFN098hAmbVFYw2ws-1" value="No" style="edgeStyle=orthogonalEdgeStyle;rounded=0;html=1;jettySize=auto;orthogonalLoop=1;fontSize=11;endArrow=block;endFill=0;endSize=8;strokeWidth=1;shadow=0;labelBackgroundColor=none;strokeColor=none;" edge="1" parent="1">
          <mxGeometry x="0.6" y="480" relative="1" as="geometry">
            <mxPoint x="90" y="280" as="offset" />
            <mxPoint x="780" y="20" as="sourcePoint" />
            <mxPoint x="750" y="20" as="targetPoint" />
            <Array as="points">
              <mxPoint x="780" y="30" />
              <mxPoint x="750" y="30" />
            </Array>
          </mxGeometry>
        </mxCell>
        <mxCell id="_hFZiaEKk419tgl2Dhct-4" value="" style="edgeStyle=orthogonalEdgeStyle;rounded=0;orthogonalLoop=1;jettySize=auto;html=1;" edge="1" parent="1" source="_hFZiaEKk419tgl2Dhct-2" target="Mlni_Cei-BQBdt8oALIt-1">
          <mxGeometry relative="1" as="geometry" />
        </mxCell>
        <mxCell id="_hFZiaEKk419tgl2Dhct-2" value="" style="rhombus;whiteSpace=wrap;html=1;" vertex="1" parent="1">
          <mxGeometry x="386" y="90" width="56" height="50" as="geometry" />
        </mxCell>
        <mxCell id="6ENBR64LXpE158-sAjic-8" style="edgeStyle=orthogonalEdgeStyle;rounded=0;orthogonalLoop=1;jettySize=auto;html=1;entryX=0.5;entryY=0;entryDx=0;entryDy=0;" edge="1" parent="1" source="_hFZiaEKk419tgl2Dhct-6" target="_hFZiaEKk419tgl2Dhct-8">
          <mxGeometry relative="1" as="geometry" />
        </mxCell>
        <mxCell id="_hFZiaEKk419tgl2Dhct-6" value="modification réservation" style="rounded=1;whiteSpace=wrap;html=1;fontSize=12;glass=0;strokeWidth=1;shadow=0;" vertex="1" parent="1">
          <mxGeometry x="354" y="460" width="120" height="40" as="geometry" />
        </mxCell>
        <mxCell id="6ENBR64LXpE158-sAjic-9" style="edgeStyle=orthogonalEdgeStyle;rounded=0;orthogonalLoop=1;jettySize=auto;html=1;exitX=0;exitY=0.5;exitDx=0;exitDy=0;entryX=0;entryY=0.5;entryDx=0;entryDy=0;" edge="1" parent="1" source="_hFZiaEKk419tgl2Dhct-8" target="6ENBR64LXpE158-sAjic-4">
          <mxGeometry relative="1" as="geometry">
            <Array as="points">
              <mxPoint x="230" y="585" />
              <mxPoint x="230" y="405" />
            </Array>
          </mxGeometry>
        </mxCell>
        <mxCell id="_hFZiaEKk419tgl2Dhct-8" value="Modif ?" style="rhombus;whiteSpace=wrap;html=1;" vertex="1" parent="1">
          <mxGeometry x="374" y="545" width="80" height="80" as="geometry" />
        </mxCell>
        <mxCell id="6ENBR64LXpE158-sAjic-7" style="edgeStyle=orthogonalEdgeStyle;rounded=0;orthogonalLoop=1;jettySize=auto;html=1;exitX=0.5;exitY=1;exitDx=0;exitDy=0;entryX=0.5;entryY=0;entryDx=0;entryDy=0;" edge="1" parent="1" source="6ENBR64LXpE158-sAjic-4" target="_hFZiaEKk419tgl2Dhct-6">
          <mxGeometry relative="1" as="geometry" />
        </mxCell>
        <mxCell id="6ENBR64LXpE158-sAjic-4" value="" style="rhombus;whiteSpace=wrap;html=1;" vertex="1" parent="1">
          <mxGeometry x="386" y="380" width="56" height="50" as="geometry" />
        </mxCell>
        <mxCell id="6ENBR64LXpE158-sAjic-10" value="No" style="edgeStyle=orthogonalEdgeStyle;rounded=0;html=1;jettySize=auto;orthogonalLoop=1;fontSize=11;endArrow=block;endFill=0;endSize=8;strokeWidth=1;shadow=0;labelBackgroundColor=none;strokeColor=none;" edge="1" parent="1">
          <mxGeometry x="0.6" y="664" relative="1" as="geometry">
            <mxPoint x="264" y="530" as="offset" />
            <mxPoint x="790" y="30" as="sourcePoint" />
            <mxPoint x="760" y="30" as="targetPoint" />
            <Array as="points">
              <mxPoint x="790" y="40" />
              <mxPoint x="760" y="40" />
            </Array>
          </mxGeometry>
        </mxCell>
      </root>
    </mxGraphModel>
  </diagram>
  <diagram id="2QUhEKx188IehhOnuHb2" name="AFFICHER LISTE CHAMBRES">
    <mxGraphModel grid="1" page="1" gridSize="10" guides="1" tooltips="1" connect="1" arrows="1" fold="1" pageScale="1" pageWidth="827" pageHeight="1169" math="0" shadow="0">
      <root>
        <mxCell id="0" />
        <mxCell id="1" parent="0" />
        <mxCell id="ypZrLG1I-xo-CYgZC6H5-2" style="edgeStyle=orthogonalEdgeStyle;rounded=0;orthogonalLoop=1;jettySize=auto;html=1;entryX=0.5;entryY=0;entryDx=0;entryDy=0;" edge="1" parent="1" source="Tv7iNgSHSp81aBwdCT_T-1" target="ypZrLG1I-xo-CYgZC6H5-1">
          <mxGeometry relative="1" as="geometry" />
        </mxCell>
        <mxCell id="Tv7iNgSHSp81aBwdCT_T-1" value="&lt;div&gt;Afficher listes chambres réservéses pour une&amp;nbsp; date donnée&lt;br&gt;&lt;/div&gt;" style="rounded=1;whiteSpace=wrap;html=1;" vertex="1" parent="1">
          <mxGeometry x="354" width="120" height="60" as="geometry" />
        </mxCell>
        <mxCell id="GGOl9Ps3s0zfQ2PxpFQe-2" value="" style="edgeStyle=orthogonalEdgeStyle;rounded=0;orthogonalLoop=1;jettySize=auto;html=1;" edge="1" parent="1" source="ypZrLG1I-xo-CYgZC6H5-1" target="GGOl9Ps3s0zfQ2PxpFQe-1">
          <mxGeometry relative="1" as="geometry" />
        </mxCell>
        <mxCell id="ypZrLG1I-xo-CYgZC6H5-1" value="" style="rhombus;whiteSpace=wrap;html=1;" vertex="1" parent="1">
          <mxGeometry x="386" y="110" width="56" height="50" as="geometry" />
        </mxCell>
        <mxCell id="GGOl9Ps3s0zfQ2PxpFQe-4" style="edgeStyle=orthogonalEdgeStyle;rounded=0;orthogonalLoop=1;jettySize=auto;html=1;entryX=0.5;entryY=0;entryDx=0;entryDy=0;" edge="1" parent="1" source="GGOl9Ps3s0zfQ2PxpFQe-1" target="GGOl9Ps3s0zfQ2PxpFQe-3">
          <mxGeometry relative="1" as="geometry" />
        </mxCell>
        <mxCell id="GGOl9Ps3s0zfQ2PxpFQe-1" value="indiquer une date" style="rounded=1;whiteSpace=wrap;html=1;" vertex="1" parent="1">
          <mxGeometry x="354" y="190" width="120" height="60" as="geometry" />
        </mxCell>
        <mxCell id="GGOl9Ps3s0zfQ2PxpFQe-5" style="edgeStyle=orthogonalEdgeStyle;rounded=0;orthogonalLoop=1;jettySize=auto;html=1;entryX=0;entryY=0.5;entryDx=0;entryDy=0;" edge="1" parent="1" source="GGOl9Ps3s0zfQ2PxpFQe-3" target="ypZrLG1I-xo-CYgZC6H5-1">
          <mxGeometry relative="1" as="geometry">
            <Array as="points">
              <mxPoint x="270" y="340" />
              <mxPoint x="270" y="135" />
            </Array>
          </mxGeometry>
        </mxCell>
        <mxCell id="GGOl9Ps3s0zfQ2PxpFQe-7" style="edgeStyle=orthogonalEdgeStyle;rounded=0;orthogonalLoop=1;jettySize=auto;html=1;" edge="1" parent="1" source="GGOl9Ps3s0zfQ2PxpFQe-3" target="GGOl9Ps3s0zfQ2PxpFQe-8">
          <mxGeometry relative="1" as="geometry">
            <mxPoint x="414" y="450" as="targetPoint" />
          </mxGeometry>
        </mxCell>
        <mxCell id="GGOl9Ps3s0zfQ2PxpFQe-3" value="Date correct" style="rhombus;whiteSpace=wrap;html=1;" vertex="1" parent="1">
          <mxGeometry x="374" y="300" width="80" height="80" as="geometry" />
        </mxCell>
        <mxCell id="GGOl9Ps3s0zfQ2PxpFQe-6" value="non" style="text;html=1;strokeColor=none;fillColor=none;align=center;verticalAlign=middle;whiteSpace=wrap;rounded=0;" vertex="1" parent="1">
          <mxGeometry x="326" y="310" width="60" height="30" as="geometry" />
        </mxCell>
        <mxCell id="xC6ooqOIG5eouDK336-5-2" style="edgeStyle=orthogonalEdgeStyle;rounded=0;orthogonalLoop=1;jettySize=auto;html=1;" edge="1" parent="1" source="GGOl9Ps3s0zfQ2PxpFQe-8">
          <mxGeometry relative="1" as="geometry">
            <mxPoint x="410" y="550" as="targetPoint" />
            <Array as="points">
              <mxPoint x="414" y="520" />
              <mxPoint x="410" y="520" />
            </Array>
          </mxGeometry>
        </mxCell>
        <mxCell id="GGOl9Ps3s0zfQ2PxpFQe-8" value="afficher chaque chambre réservé à partir de cette date" style="rounded=1;whiteSpace=wrap;html=1;" vertex="1" parent="1">
          <mxGeometry x="353" y="430" width="120" height="60" as="geometry" />
        </mxCell>
        <mxCell id="xC6ooqOIG5eouDK336-5-1" value="" style="shape=link;html=1;rounded=0;" edge="1" parent="1">
          <mxGeometry width="100" relative="1" as="geometry">
            <mxPoint x="-72" y="550" as="sourcePoint" />
            <mxPoint x="888" y="550" as="targetPoint" />
          </mxGeometry>
        </mxCell>
        <mxCell id="xC6ooqOIG5eouDK336-5-16" style="edgeStyle=orthogonalEdgeStyle;rounded=0;orthogonalLoop=1;jettySize=auto;html=1;" edge="1" parent="1" source="xC6ooqOIG5eouDK336-5-3">
          <mxGeometry relative="1" as="geometry">
            <mxPoint x="158" y="720" as="targetPoint" />
            <Array as="points">
              <mxPoint x="-22" y="690" />
              <mxPoint x="158" y="690" />
            </Array>
          </mxGeometry>
        </mxCell>
        <mxCell id="xC6ooqOIG5eouDK336-5-3" value="&lt;span id=&quot;page38R_mcid17&quot; class=&quot;markedContent&quot;&gt;numéro de chambre&lt;/span&gt;" style="rounded=1;whiteSpace=wrap;html=1;" vertex="1" parent="1">
          <mxGeometry x="-82" y="610" width="120" height="60" as="geometry" />
        </mxCell>
        <mxCell id="xC6ooqOIG5eouDK336-5-17" style="edgeStyle=orthogonalEdgeStyle;rounded=0;orthogonalLoop=1;jettySize=auto;html=1;" edge="1" parent="1" source="xC6ooqOIG5eouDK336-5-4">
          <mxGeometry relative="1" as="geometry">
            <mxPoint x="178" y="720" as="targetPoint" />
            <Array as="points">
              <mxPoint x="108" y="680" />
              <mxPoint x="188" y="680" />
              <mxPoint x="188" y="720" />
            </Array>
          </mxGeometry>
        </mxCell>
        <mxCell id="xC6ooqOIG5eouDK336-5-4" value="&lt;span id=&quot;page38R_mcid17&quot; class=&quot;markedContent&quot;&gt;catégorie&lt;/span&gt;" style="rounded=1;whiteSpace=wrap;html=1;" vertex="1" parent="1">
          <mxGeometry x="48" y="610" width="120" height="60" as="geometry" />
        </mxCell>
        <mxCell id="xC6ooqOIG5eouDK336-5-18" style="edgeStyle=orthogonalEdgeStyle;rounded=0;orthogonalLoop=1;jettySize=auto;html=1;" edge="1" parent="1" source="xC6ooqOIG5eouDK336-5-5">
          <mxGeometry relative="1" as="geometry">
            <mxPoint x="257.9999999999998" y="720" as="targetPoint" />
          </mxGeometry>
        </mxCell>
        <mxCell id="xC6ooqOIG5eouDK336-5-5" value="numéro de&lt;br&gt;la réservation" style="rounded=1;whiteSpace=wrap;html=1;" vertex="1" parent="1">
          <mxGeometry x="198" y="610" width="120" height="60" as="geometry" />
        </mxCell>
        <mxCell id="xC6ooqOIG5eouDK336-5-19" style="edgeStyle=orthogonalEdgeStyle;rounded=0;orthogonalLoop=1;jettySize=auto;html=1;" edge="1" parent="1" source="xC6ooqOIG5eouDK336-5-6">
          <mxGeometry relative="1" as="geometry">
            <mxPoint x="398" y="720" as="targetPoint" />
          </mxGeometry>
        </mxCell>
        <mxCell id="xC6ooqOIG5eouDK336-5-6" value="numéro du client" style="rounded=1;whiteSpace=wrap;html=1;" vertex="1" parent="1">
          <mxGeometry x="338" y="610" width="120" height="60" as="geometry" />
        </mxCell>
        <mxCell id="xC6ooqOIG5eouDK336-5-20" style="edgeStyle=orthogonalEdgeStyle;rounded=0;orthogonalLoop=1;jettySize=auto;html=1;" edge="1" parent="1" source="xC6ooqOIG5eouDK336-5-7">
          <mxGeometry relative="1" as="geometry">
            <mxPoint x="468" y="720" as="targetPoint" />
            <Array as="points">
              <mxPoint x="538" y="690" />
              <mxPoint x="468" y="690" />
            </Array>
          </mxGeometry>
        </mxCell>
        <mxCell id="xC6ooqOIG5eouDK336-5-7" value="coordonnée client" style="rounded=1;whiteSpace=wrap;html=1;" vertex="1" parent="1">
          <mxGeometry x="478" y="610" width="120" height="60" as="geometry" />
        </mxCell>
        <mxCell id="xC6ooqOIG5eouDK336-5-21" style="edgeStyle=orthogonalEdgeStyle;rounded=0;orthogonalLoop=1;jettySize=auto;html=1;" edge="1" parent="1" source="xC6ooqOIG5eouDK336-5-8">
          <mxGeometry relative="1" as="geometry">
            <mxPoint x="518" y="720" as="targetPoint" />
            <Array as="points">
              <mxPoint x="685" y="700" />
              <mxPoint x="518" y="700" />
            </Array>
          </mxGeometry>
        </mxCell>
        <mxCell id="xC6ooqOIG5eouDK336-5-8" value="date début et fin de séjour" style="rounded=1;whiteSpace=wrap;html=1;" vertex="1" parent="1">
          <mxGeometry x="625" y="610" width="120" height="60" as="geometry" />
        </mxCell>
        <mxCell id="xC6ooqOIG5eouDK336-5-9" value="" style="endArrow=classic;html=1;rounded=0;entryX=0.5;entryY=0;entryDx=0;entryDy=0;" edge="1" parent="1" target="xC6ooqOIG5eouDK336-5-3">
          <mxGeometry width="50" height="50" relative="1" as="geometry">
            <mxPoint x="-22" y="550" as="sourcePoint" />
            <mxPoint x="-22" y="600" as="targetPoint" />
          </mxGeometry>
        </mxCell>
        <mxCell id="xC6ooqOIG5eouDK336-5-10" value="" style="endArrow=classic;html=1;rounded=0;entryX=0.5;entryY=0;entryDx=0;entryDy=0;" edge="1" parent="1" target="xC6ooqOIG5eouDK336-5-4">
          <mxGeometry width="50" height="50" relative="1" as="geometry">
            <mxPoint x="108" y="550" as="sourcePoint" />
            <mxPoint x="-12" y="620" as="targetPoint" />
            <Array as="points">
              <mxPoint x="108" y="580" />
            </Array>
          </mxGeometry>
        </mxCell>
        <mxCell id="xC6ooqOIG5eouDK336-5-11" value="" style="endArrow=classic;html=1;rounded=0;entryX=0.5;entryY=0;entryDx=0;entryDy=0;" edge="1" parent="1" target="xC6ooqOIG5eouDK336-5-5">
          <mxGeometry width="50" height="50" relative="1" as="geometry">
            <mxPoint x="258" y="550" as="sourcePoint" />
            <mxPoint x="118" y="620" as="targetPoint" />
            <Array as="points" />
          </mxGeometry>
        </mxCell>
        <mxCell id="xC6ooqOIG5eouDK336-5-12" value="" style="endArrow=classic;html=1;rounded=0;entryX=0.5;entryY=0;entryDx=0;entryDy=0;" edge="1" parent="1" target="xC6ooqOIG5eouDK336-5-6">
          <mxGeometry width="50" height="50" relative="1" as="geometry">
            <mxPoint x="398" y="550" as="sourcePoint" />
            <mxPoint x="268" y="620" as="targetPoint" />
            <Array as="points" />
          </mxGeometry>
        </mxCell>
        <mxCell id="xC6ooqOIG5eouDK336-5-13" value="" style="endArrow=classic;html=1;rounded=0;entryX=0.5;entryY=0;entryDx=0;entryDy=0;" edge="1" parent="1" target="xC6ooqOIG5eouDK336-5-7">
          <mxGeometry width="50" height="50" relative="1" as="geometry">
            <mxPoint x="538" y="550" as="sourcePoint" />
            <mxPoint x="408" y="620" as="targetPoint" />
            <Array as="points" />
          </mxGeometry>
        </mxCell>
        <mxCell id="xC6ooqOIG5eouDK336-5-14" value="" style="endArrow=classic;html=1;rounded=0;entryX=0.5;entryY=0;entryDx=0;entryDy=0;" edge="1" parent="1" target="xC6ooqOIG5eouDK336-5-8">
          <mxGeometry width="50" height="50" relative="1" as="geometry">
            <mxPoint x="685" y="550" as="sourcePoint" />
            <mxPoint x="408" y="620" as="targetPoint" />
            <Array as="points" />
          </mxGeometry>
        </mxCell>
        <mxCell id="xC6ooqOIG5eouDK336-5-15" value="" style="shape=link;html=1;rounded=0;" edge="1" parent="1">
          <mxGeometry width="100" relative="1" as="geometry">
            <mxPoint x="-72" y="720" as="sourcePoint" />
            <mxPoint x="908" y="720" as="targetPoint" />
            <Array as="points">
              <mxPoint x="318" y="720" />
            </Array>
          </mxGeometry>
        </mxCell>
        <mxCell id="OvggYXds-oE3MZygTJD8-3" style="edgeStyle=orthogonalEdgeStyle;rounded=0;orthogonalLoop=1;jettySize=auto;html=1;" edge="1" parent="1" source="OvggYXds-oE3MZygTJD8-1">
          <mxGeometry relative="1" as="geometry">
            <mxPoint x="708" y="720" as="targetPoint" />
            <Array as="points">
              <mxPoint x="838" y="690" />
              <mxPoint x="709" y="690" />
              <mxPoint x="709" y="720" />
            </Array>
          </mxGeometry>
        </mxCell>
        <mxCell id="OvggYXds-oE3MZygTJD8-1" value="état réservation" style="rounded=1;whiteSpace=wrap;html=1;" vertex="1" parent="1">
          <mxGeometry x="778" y="610" width="120" height="60" as="geometry" />
        </mxCell>
        <mxCell id="OvggYXds-oE3MZygTJD8-2" value="" style="endArrow=classic;html=1;rounded=0;entryX=0.5;entryY=0;entryDx=0;entryDy=0;" edge="1" parent="1" target="OvggYXds-oE3MZygTJD8-1">
          <mxGeometry width="50" height="50" relative="1" as="geometry">
            <mxPoint x="838" y="550" as="sourcePoint" />
            <mxPoint x="695" y="620" as="targetPoint" />
            <Array as="points" />
          </mxGeometry>
        </mxCell>
        <mxCell id="bDnY2bDwPvi5xs-DUOgt-2" style="edgeStyle=orthogonalEdgeStyle;rounded=0;orthogonalLoop=1;jettySize=auto;html=1;exitX=0.5;exitY=1;exitDx=0;exitDy=0;entryX=0.5;entryY=0;entryDx=0;entryDy=0;" edge="1" parent="1" source="uOsr5gJstocFg-nxFg9B-2" target="bDnY2bDwPvi5xs-DUOgt-1">
          <mxGeometry relative="1" as="geometry" />
        </mxCell>
        <mxCell id="uOsr5gJstocFg-nxFg9B-2" value="Afficher liste chambre par défaut" style="rounded=1;whiteSpace=wrap;html=1;" vertex="1" parent="1">
          <mxGeometry x="340" y="790" width="120" height="60" as="geometry" />
        </mxCell>
        <mxCell id="uOsr5gJstocFg-nxFg9B-4" style="edgeStyle=orthogonalEdgeStyle;rounded=0;orthogonalLoop=1;jettySize=auto;html=1;entryX=0.5;entryY=0;entryDx=0;entryDy=0;" edge="1" parent="1" target="uOsr5gJstocFg-nxFg9B-2">
          <mxGeometry relative="1" as="geometry">
            <mxPoint x="408" y="730" as="targetPoint" />
            <mxPoint x="400" y="710" as="sourcePoint" />
          </mxGeometry>
        </mxCell>
        <mxCell id="bDnY2bDwPvi5xs-DUOgt-3" style="edgeStyle=orthogonalEdgeStyle;rounded=0;orthogonalLoop=1;jettySize=auto;html=1;" edge="1" parent="1" source="bDnY2bDwPvi5xs-DUOgt-1">
          <mxGeometry relative="1" as="geometry">
            <mxPoint x="520" y="920" as="targetPoint" />
          </mxGeometry>
        </mxCell>
        <mxCell id="ocoRSNdJTea_5y-IMoRB-4" style="edgeStyle=orthogonalEdgeStyle;rounded=0;orthogonalLoop=1;jettySize=auto;html=1;entryX=0.5;entryY=0;entryDx=0;entryDy=0;" edge="1" parent="1" source="bDnY2bDwPvi5xs-DUOgt-1" target="ocoRSNdJTea_5y-IMoRB-3">
          <mxGeometry relative="1" as="geometry">
            <mxPoint x="398" y="1010" as="targetPoint" />
          </mxGeometry>
        </mxCell>
        <mxCell id="bDnY2bDwPvi5xs-DUOgt-1" value="" style="rhombus;whiteSpace=wrap;html=1;" vertex="1" parent="1">
          <mxGeometry x="358" y="880" width="80" height="80" as="geometry" />
        </mxCell>
        <mxCell id="ocoRSNdJTea_5y-IMoRB-1" value="" style="shape=waypoint;sketch=0;size=6;pointerEvents=1;points=[];fillColor=default;resizable=0;rotatable=0;perimeter=centerPerimeter;snapToPoint=1;shadow=0;strokeWidth=1;spacing=6;spacingTop=-4;" vertex="1" parent="1">
          <mxGeometry x="510" y="910" width="20" height="20" as="geometry" />
        </mxCell>
        <mxCell id="ocoRSNdJTea_5y-IMoRB-2" value="non" style="text;html=1;strokeColor=none;fillColor=none;align=center;verticalAlign=middle;whiteSpace=wrap;rounded=0;" vertex="1" parent="1">
          <mxGeometry x="340" y="950" width="60" height="30" as="geometry" />
        </mxCell>
        <mxCell id="ocoRSNdJTea_5y-IMoRB-6" style="edgeStyle=orthogonalEdgeStyle;rounded=0;orthogonalLoop=1;jettySize=auto;html=1;entryX=0.5;entryY=0;entryDx=0;entryDy=0;" edge="1" parent="1" source="ocoRSNdJTea_5y-IMoRB-3" target="ocoRSNdJTea_5y-IMoRB-5">
          <mxGeometry relative="1" as="geometry" />
        </mxCell>
        <mxCell id="ocoRSNdJTea_5y-IMoRB-3" value="filtrer par numéro de chambre " style="rounded=1;whiteSpace=wrap;html=1;" vertex="1" parent="1">
          <mxGeometry x="338" y="1010" width="120" height="60" as="geometry" />
        </mxCell>
        <mxCell id="YWIbUhuL17pbUOu8GR8q-1" style="edgeStyle=orthogonalEdgeStyle;rounded=0;orthogonalLoop=1;jettySize=auto;html=1;" edge="1" parent="1" source="ocoRSNdJTea_5y-IMoRB-5" target="YWIbUhuL17pbUOu8GR8q-2">
          <mxGeometry relative="1" as="geometry">
            <mxPoint x="398" y="1300" as="targetPoint" />
          </mxGeometry>
        </mxCell>
        <mxCell id="YWIbUhuL17pbUOu8GR8q-3" style="edgeStyle=orthogonalEdgeStyle;rounded=0;orthogonalLoop=1;jettySize=auto;html=1;" edge="1" parent="1" source="ocoRSNdJTea_5y-IMoRB-5" target="YWIbUhuL17pbUOu8GR8q-4">
          <mxGeometry relative="1" as="geometry">
            <mxPoint x="610" y="1140" as="targetPoint" />
          </mxGeometry>
        </mxCell>
        <mxCell id="ocoRSNdJTea_5y-IMoRB-5" value="tri ?" style="rhombus;whiteSpace=wrap;html=1;" vertex="1" parent="1">
          <mxGeometry x="358" y="1100" width="80" height="80" as="geometry" />
        </mxCell>
        <mxCell id="YWIbUhuL17pbUOu8GR8q-2" value="" style="rhombus;whiteSpace=wrap;html=1;" vertex="1" parent="1">
          <mxGeometry x="358" y="1600" width="80" height="80" as="geometry" />
        </mxCell>
        <mxCell id="jGyPHhdj5iTVGwBVd-Dm-1" style="edgeStyle=orthogonalEdgeStyle;rounded=0;orthogonalLoop=1;jettySize=auto;html=1;" edge="1" parent="1" source="YWIbUhuL17pbUOu8GR8q-4" target="jGyPHhdj5iTVGwBVd-Dm-2">
          <mxGeometry relative="1" as="geometry">
            <mxPoint x="610" y="1220" as="targetPoint" />
          </mxGeometry>
        </mxCell>
        <mxCell id="YWIbUhuL17pbUOu8GR8q-4" value="trier par numéro de client" style="rounded=1;whiteSpace=wrap;html=1;" vertex="1" parent="1">
          <mxGeometry x="550" y="1110" width="120" height="60" as="geometry" />
        </mxCell>
        <mxCell id="twDGtAwHHbQ0WQJrCTmd-3" style="edgeStyle=orthogonalEdgeStyle;rounded=0;orthogonalLoop=1;jettySize=auto;html=1;" edge="1" parent="1" source="jGyPHhdj5iTVGwBVd-Dm-2">
          <mxGeometry relative="1" as="geometry">
            <mxPoint x="610" y="1390" as="targetPoint" />
          </mxGeometry>
        </mxCell>
        <mxCell id="twDGtAwHHbQ0WQJrCTmd-4" style="edgeStyle=orthogonalEdgeStyle;rounded=0;orthogonalLoop=1;jettySize=auto;html=1;" edge="1" parent="1" source="jGyPHhdj5iTVGwBVd-Dm-2" target="twDGtAwHHbQ0WQJrCTmd-5">
          <mxGeometry relative="1" as="geometry">
            <mxPoint x="800" y="1260" as="targetPoint" />
          </mxGeometry>
        </mxCell>
        <mxCell id="jGyPHhdj5iTVGwBVd-Dm-2" value="" style="rhombus;whiteSpace=wrap;html=1;" vertex="1" parent="1">
          <mxGeometry x="570" y="1220" width="80" height="80" as="geometry" />
        </mxCell>
        <mxCell id="twDGtAwHHbQ0WQJrCTmd-1" value="oui" style="text;html=1;strokeColor=none;fillColor=none;align=center;verticalAlign=middle;whiteSpace=wrap;rounded=0;" vertex="1" parent="1">
          <mxGeometry x="438" y="890" width="60" height="30" as="geometry" />
        </mxCell>
        <mxCell id="twDGtAwHHbQ0WQJrCTmd-2" value="oui" style="text;html=1;strokeColor=none;fillColor=none;align=center;verticalAlign=middle;whiteSpace=wrap;rounded=0;" vertex="1" parent="1">
          <mxGeometry x="414" y="380" width="60" height="30" as="geometry" />
        </mxCell>
        <mxCell id="twDGtAwHHbQ0WQJrCTmd-6" style="edgeStyle=orthogonalEdgeStyle;rounded=0;orthogonalLoop=1;jettySize=auto;html=1;" edge="1" parent="1" source="twDGtAwHHbQ0WQJrCTmd-5" target="twDGtAwHHbQ0WQJrCTmd-7">
          <mxGeometry relative="1" as="geometry">
            <mxPoint x="800" y="1370" as="targetPoint" />
          </mxGeometry>
        </mxCell>
        <mxCell id="twDGtAwHHbQ0WQJrCTmd-5" value="trier par nom de client" style="rounded=1;whiteSpace=wrap;html=1;" vertex="1" parent="1">
          <mxGeometry x="740" y="1230" width="120" height="60" as="geometry" />
        </mxCell>
        <mxCell id="twDGtAwHHbQ0WQJrCTmd-8" style="edgeStyle=orthogonalEdgeStyle;rounded=0;orthogonalLoop=1;jettySize=auto;html=1;" edge="1" parent="1" source="twDGtAwHHbQ0WQJrCTmd-7" target="twDGtAwHHbQ0WQJrCTmd-9">
          <mxGeometry relative="1" as="geometry">
            <mxPoint x="950" y="1370" as="targetPoint" />
          </mxGeometry>
        </mxCell>
        <mxCell id="twDGtAwHHbQ0WQJrCTmd-10" style="edgeStyle=orthogonalEdgeStyle;rounded=0;orthogonalLoop=1;jettySize=auto;html=1;" edge="1" parent="1" source="twDGtAwHHbQ0WQJrCTmd-7">
          <mxGeometry relative="1" as="geometry">
            <mxPoint x="800" y="1530" as="targetPoint" />
          </mxGeometry>
        </mxCell>
        <mxCell id="twDGtAwHHbQ0WQJrCTmd-7" value="" style="rhombus;whiteSpace=wrap;html=1;" vertex="1" parent="1">
          <mxGeometry x="760" y="1330" width="80" height="80" as="geometry" />
        </mxCell>
        <mxCell id="twDGtAwHHbQ0WQJrCTmd-11" style="edgeStyle=orthogonalEdgeStyle;rounded=0;orthogonalLoop=1;jettySize=auto;html=1;" edge="1" parent="1" source="twDGtAwHHbQ0WQJrCTmd-9" target="twDGtAwHHbQ0WQJrCTmd-12">
          <mxGeometry relative="1" as="geometry">
            <mxPoint x="958" y="1480" as="targetPoint" />
          </mxGeometry>
        </mxCell>
        <mxCell id="twDGtAwHHbQ0WQJrCTmd-9" value="trier par date début séjour" style="rounded=1;whiteSpace=wrap;html=1;" vertex="1" parent="1">
          <mxGeometry x="898" y="1340" width="120" height="60" as="geometry" />
        </mxCell>
        <mxCell id="twDGtAwHHbQ0WQJrCTmd-13" style="edgeStyle=orthogonalEdgeStyle;rounded=0;orthogonalLoop=1;jettySize=auto;html=1;" edge="1" parent="1" source="twDGtAwHHbQ0WQJrCTmd-12" target="twDGtAwHHbQ0WQJrCTmd-14">
          <mxGeometry relative="1" as="geometry">
            <mxPoint x="1080" y="1480" as="targetPoint" />
          </mxGeometry>
        </mxCell>
        <mxCell id="twDGtAwHHbQ0WQJrCTmd-15" style="edgeStyle=orthogonalEdgeStyle;rounded=0;orthogonalLoop=1;jettySize=auto;html=1;" edge="1" parent="1" source="twDGtAwHHbQ0WQJrCTmd-12">
          <mxGeometry relative="1" as="geometry">
            <mxPoint x="958" y="1600" as="targetPoint" />
          </mxGeometry>
        </mxCell>
        <mxCell id="twDGtAwHHbQ0WQJrCTmd-12" value="" style="rhombus;whiteSpace=wrap;html=1;" vertex="1" parent="1">
          <mxGeometry x="918" y="1440" width="80" height="80" as="geometry" />
        </mxCell>
        <mxCell id="twDGtAwHHbQ0WQJrCTmd-16" style="edgeStyle=orthogonalEdgeStyle;rounded=0;orthogonalLoop=1;jettySize=auto;html=1;" edge="1" parent="1" source="twDGtAwHHbQ0WQJrCTmd-14" target="twDGtAwHHbQ0WQJrCTmd-17">
          <mxGeometry relative="1" as="geometry">
            <mxPoint x="1120" y="1580" as="targetPoint" />
          </mxGeometry>
        </mxCell>
        <mxCell id="twDGtAwHHbQ0WQJrCTmd-14" value="&lt;div&gt;trier par catégorie de chambre&lt;/div&gt;" style="rounded=1;whiteSpace=wrap;html=1;" vertex="1" parent="1">
          <mxGeometry x="1060" y="1450" width="120" height="60" as="geometry" />
        </mxCell>
        <mxCell id="twDGtAwHHbQ0WQJrCTmd-18" style="edgeStyle=orthogonalEdgeStyle;rounded=0;orthogonalLoop=1;jettySize=auto;html=1;" edge="1" parent="1" source="twDGtAwHHbQ0WQJrCTmd-17" target="twDGtAwHHbQ0WQJrCTmd-20">
          <mxGeometry relative="1" as="geometry">
            <mxPoint x="1240" y="1580" as="targetPoint" />
          </mxGeometry>
        </mxCell>
        <mxCell id="twDGtAwHHbQ0WQJrCTmd-19" style="edgeStyle=orthogonalEdgeStyle;rounded=0;orthogonalLoop=1;jettySize=auto;html=1;" edge="1" parent="1" source="twDGtAwHHbQ0WQJrCTmd-17">
          <mxGeometry relative="1" as="geometry">
            <mxPoint x="1120" y="1700" as="targetPoint" />
          </mxGeometry>
        </mxCell>
        <mxCell id="twDGtAwHHbQ0WQJrCTmd-17" value="" style="rhombus;whiteSpace=wrap;html=1;" vertex="1" parent="1">
          <mxGeometry x="1080" y="1540" width="80" height="80" as="geometry" />
        </mxCell>
        <mxCell id="twDGtAwHHbQ0WQJrCTmd-20" value="trier état réservation" style="rounded=1;whiteSpace=wrap;html=1;" vertex="1" parent="1">
          <mxGeometry x="1210" y="1550" width="120" height="60" as="geometry" />
        </mxCell>
        <mxCell id="twDGtAwHHbQ0WQJrCTmd-21" value="non" style="text;html=1;strokeColor=none;fillColor=none;align=center;verticalAlign=middle;whiteSpace=wrap;rounded=0;" vertex="1" parent="1">
          <mxGeometry x="438" y="1110" width="60" height="30" as="geometry" />
        </mxCell>
        <mxCell id="twDGtAwHHbQ0WQJrCTmd-22" value="non" style="text;html=1;strokeColor=none;fillColor=none;align=center;verticalAlign=middle;whiteSpace=wrap;rounded=0;" vertex="1" parent="1">
          <mxGeometry x="655" y="1220" width="60" height="30" as="geometry" />
        </mxCell>
        <mxCell id="twDGtAwHHbQ0WQJrCTmd-23" value="non" style="text;html=1;strokeColor=none;fillColor=none;align=center;verticalAlign=middle;whiteSpace=wrap;rounded=0;" vertex="1" parent="1">
          <mxGeometry x="840" y="1320" width="60" height="30" as="geometry" />
        </mxCell>
        <mxCell id="twDGtAwHHbQ0WQJrCTmd-26" value="non" style="text;html=1;strokeColor=none;fillColor=none;align=center;verticalAlign=middle;whiteSpace=wrap;rounded=0;" vertex="1" parent="1">
          <mxGeometry x="1000" y="1440" width="60" height="30" as="geometry" />
        </mxCell>
        <mxCell id="twDGtAwHHbQ0WQJrCTmd-27" value="non" style="text;html=1;strokeColor=none;fillColor=none;align=center;verticalAlign=middle;whiteSpace=wrap;rounded=0;" vertex="1" parent="1">
          <mxGeometry x="1150" y="1540" width="60" height="30" as="geometry" />
        </mxCell>
      </root>
    </mxGraphModel>
  </diagram>
</mxfile>
